<svg width="103" height="111" viewBox="0 0 103 111" fill="none" xmlns="http://www.w3.org/2000/svg">
<path d="M90.5739 44.5164L85.1239 41.0314L82.144 45.6916L87.4361 49.0755L53.2431 102.549L7.58954 73.3558L41.7825 19.8827L46.7586 23.0646L49.7385 18.4045L44.5254 15.071C42.0769 13.5053 38.8396 14.2173 37.2739 16.6659L2.82838 70.5339C1.26268 72.9825 1.97465 76.2198 4.4232 77.7855L50.3927 107.18C52.8412 108.746 56.0785 108.034 57.6443 105.585L92.0897 51.7174C93.7344 49.3194 93.0225 46.0821 90.5739 44.5164Z" fill="#007AFF"/>
<path d="M48.3009 57.546L50.4335 58.9097C51.1444 59.3642 52.0508 59.1649 52.5054 58.454L55.0307 54.5047L58.98 57.0301C59.6908 57.4846 60.5973 57.2853 61.0518 56.5744L62.466 54.3628C62.9206 53.652 62.7212 52.7455 62.0104 52.2909L58.0611 49.7656L60.5864 45.8163C61.041 45.1055 60.8416 44.199 60.1308 43.7445L57.9981 42.3808C57.2873 41.9262 56.3808 42.1256 55.9263 42.8365L53.4009 46.7857L49.4517 44.2604C48.7408 43.8058 47.8344 44.0052 47.3798 44.7161L46.0161 46.8487C45.5616 47.5595 45.7609 48.466 46.4718 48.9205L50.4211 51.4459L47.8957 55.3951C47.4412 56.106 47.669 57.1419 48.3009 57.546Z" fill="#007AFF"/>
<path d="M29.3542 60.8989L55.4194 77.5661C56.1303 78.0206 57.0367 77.8213 57.4913 77.1104L58.8549 74.9778C59.3095 74.2669 59.1101 73.3605 58.3993 72.9059L32.3341 56.2388C31.6232 55.7842 30.7168 55.9836 30.2622 56.6944L28.8985 58.827C28.444 59.5379 28.6433 60.4444 29.3542 60.8989Z" fill="#007AFF"/>
<path d="M22.3338 71.8784L48.399 88.5456C49.1099 89.0001 50.0163 88.8008 50.4709 88.0899L51.8346 85.9573C52.2891 85.2464 52.0898 84.34 51.3789 83.8854L25.3137 67.2183C24.6029 66.7637 23.6964 66.9631 23.2419 67.6739L21.8782 69.8065C21.4236 70.5174 21.623 71.4238 22.3338 71.8784Z" fill="#007AFF"/>
<path d="M51.0408 28.0283L75.8422 43.8874C76.7901 44.4935 78.085 44.2087 78.6911 43.2608L83.1861 36.2311C83.7922 35.2833 83.5074 33.9884 82.5596 33.3823L78.4524 30.756C81.1228 26.2318 79.7622 20.3541 75.2601 17.4753C70.7579 14.5964 64.9308 15.8779 61.8654 20.1496L57.7582 17.5232C56.8104 16.9172 55.5155 17.202 54.9094 18.1498L50.4143 25.1795C49.8082 26.1273 50.093 27.4222 51.0408 28.0283ZM71.9771 22.6093C73.7148 23.7204 74.2274 26.0513 73.1163 27.789C72.0052 29.5267 69.6743 30.0393 67.9366 28.9281C66.1989 27.817 65.6863 25.4861 66.7975 23.7485C67.9086 22.0108 70.2395 21.4982 71.9771 22.6093Z" fill="#007AFF"/>
</svg>
