<svg width="24" height="24" viewBox="0 0 24 24" fill="none" xmlns="http://www.w3.org/2000/svg">
<path fill-rule="evenodd" clip-rule="evenodd" d="M15.9771 5.99996C15.1815 5.99996 14.4184 6.31603 13.8558 6.87864C13.2932 7.44125 12.9771 8.20431 12.9771 8.99996C12.9771 9.79561 13.2932 10.5587 13.8558 11.1213C14.4184 11.6839 15.1815 12 15.9771 12C16.7728 12 17.5358 11.6839 18.0984 11.1213C18.661 10.5587 18.9771 9.79561 18.9771 8.99996C18.9771 8.20431 18.661 7.44125 18.0984 6.87864C17.5358 6.31603 16.7728 5.99996 15.9771 5.99996ZM10.9771 8.99996C10.9771 8.18492 11.1764 7.38223 11.5575 6.6618C11.9387 5.94137 12.4901 5.32503 13.1639 4.86646C13.8378 4.40789 14.6134 4.121 15.4235 4.03075C16.2335 3.9405 17.0533 4.04964 17.8115 4.34866C18.5697 4.64769 19.2433 5.12753 19.7737 5.74641C20.3041 6.36529 20.6751 7.10444 20.8545 7.89949C21.0339 8.69455 21.0162 9.5214 20.803 10.3081C20.5897 11.0947 20.1875 11.8173 19.6311 12.413C21.3276 12.9648 22.7942 14.0617 23.8031 15.533C23.9438 15.7521 23.9935 16.0176 23.9415 16.2728C23.8896 16.528 23.7401 16.7529 23.5248 16.8996C23.3096 17.0463 23.0457 17.1032 22.7891 17.0583C22.5326 17.0133 22.3037 16.8701 22.1511 16.659C21.1751 15.227 19.3951 14 16.9771 14C13.1431 14 10.9771 17.074 10.9771 19C10.9771 19.2652 10.8718 19.5195 10.6842 19.7071C10.4967 19.8946 10.2423 20 9.97711 20C9.71189 20 9.45754 19.8946 9.27 19.7071C9.08247 19.5195 8.97711 19.2652 8.97711 19C8.97711 18.308 9.13511 17.57 9.43711 16.843C9.35859 16.7921 9.28756 16.7305 9.22611 16.66C8.40511 15.726 7.13111 15 5.47711 15C3.82311 15 2.54911 15.726 1.72811 16.66C1.55034 16.8488 1.30616 16.9612 1.0471 16.9734C0.788044 16.9856 0.534373 16.8967 0.339622 16.7254C0.144872 16.5542 0.0242755 16.3139 0.00328342 16.0554C-0.0177086 15.7969 0.0625457 15.5404 0.22711 15.34C0.817627 14.6679 1.53369 14.1176 2.33511 13.72C1.69482 13.0951 1.25533 12.2935 1.07278 11.4176C0.890227 10.5418 0.972903 9.63139 1.31024 8.80274C1.64759 7.97409 2.22428 7.26481 2.96667 6.76548C3.70905 6.26616 4.58343 5.99947 5.47811 5.99947C6.37279 5.99947 7.24717 6.26616 7.98955 6.76548C8.73194 7.26481 9.30863 7.97409 9.64598 8.80274C9.98332 9.63139 10.066 10.5418 9.88344 11.4176C9.70089 12.2935 9.2614 13.0951 8.62111 13.72C9.31487 14.0643 9.94542 14.5234 10.4861 15.078C11.1653 14.2233 12.0102 13.5148 12.9701 12.995C12.3506 12.5294 11.848 11.9261 11.5021 11.2327C11.1562 10.5393 10.9764 9.77486 10.9771 8.99996V8.99996ZM2.97711 10.5C2.97711 9.83692 3.2405 9.20103 3.70934 8.73219C4.17818 8.26335 4.81407 7.99996 5.47711 7.99996C6.14015 7.99996 6.77604 8.26335 7.24488 8.73219C7.71372 9.20103 7.97711 9.83692 7.97711 10.5C7.97711 11.163 7.71372 11.7989 7.24488 12.2677C6.77604 12.7366 6.14015 13 5.47711 13C4.81407 13 4.17818 12.7366 3.70934 12.2677C3.2405 11.7989 2.97711 11.163 2.97711 10.5Z" fill="white"/>
</svg>
