<svg width="82" height="77" viewBox="0 0 82 77" fill="none" xmlns="http://www.w3.org/2000/svg">
<path fill-rule="evenodd" clip-rule="evenodd" d="M3.15963 31.9354C2.32164 29.8349 2.35238 27.4876 3.24508 25.4098C4.13778 23.332 5.81931 21.694 7.91976 20.856L19.9525 16.0555C21.6148 15.3916 23.4439 15.2677 25.1806 15.7013C26.9172 16.135 28.4734 17.1041 29.6285 18.4715L31.4596 20.645L53.3181 11.9244C54.7184 11.3658 56.2833 11.3863 57.6685 11.9814C59.0537 12.5765 60.1457 13.6975 60.7044 15.0978L62.8213 20.4041C63.5758 20.1867 64.3671 20.1279 65.1455 20.2315C65.9238 20.3351 66.6722 20.5988 67.3435 21.006C68.0149 21.4132 68.5946 21.9551 69.0461 22.5975C69.4976 23.2399 69.8111 23.9689 69.9669 24.7384L75.1242 50.2218C75.3882 51.5267 75.1859 52.8828 74.5525 54.0537C73.9191 55.2247 72.8948 56.1362 71.6582 56.6293L26.344 74.7076C24.9437 75.2663 23.3788 75.2458 21.9937 74.6506C20.6085 74.0555 19.5164 72.9345 18.9578 71.5342L3.15963 31.9354ZM57.5309 22.4841L55.4245 17.2043L33.566 25.9248C32.4577 26.3666 31.2386 26.4485 30.0812 26.159C28.9238 25.8694 27.8869 25.223 27.1173 24.3114L25.2846 22.1415C24.8996 21.6855 24.3809 21.3622 23.802 21.2175C23.223 21.0728 22.6132 21.114 22.0589 21.3353L10.0262 26.1358C9.32603 26.4152 8.76552 26.9612 8.46795 27.6538C8.17038 28.3464 8.16014 29.1288 8.43947 29.829L16.0963 49.0212L15.2593 44.208C15.036 42.9231 15.2612 41.6004 15.8974 40.4618C16.5335 39.3232 17.5418 38.438 18.7532 37.9547L57.5309 22.4841ZM25.2038 69.0423C25.2474 68.7452 25.2436 68.443 25.1925 68.1471L20.8569 43.2356L64.3919 25.8671L69.5492 51.3505L25.2038 69.0423Z" fill="#007AFF"/>
</svg>
