<svg width="85" height="116" viewBox="0 0 85 116" fill="none" xmlns="http://www.w3.org/2000/svg">
<path d="M78.1075 18.9463H69.6733V26.1581H77.863V108.91H7.2118V26.1581H14.9125V18.9463H6.8451C3.05585 18.9463 0 22.0021 0 25.7914V109.155C0 112.944 3.05585 116 6.8451 116H77.9852C81.7745 116 84.8303 112.944 84.8303 109.155V25.7914C84.9526 22.0021 81.8967 18.9463 78.1075 18.9463Z" fill="#007AFF"/>
<path d="M40.8255 62.9504H44.1258C45.2259 62.9504 46.0815 62.0947 46.0815 60.9946V54.8829H52.1932C53.2933 54.8829 54.149 54.0273 54.149 52.9272V49.5046C54.149 48.4045 53.2933 47.5489 52.1932 47.5489H46.0815V41.4372C46.0815 40.3371 45.2259 39.4814 44.1258 39.4814H40.8255C39.7254 39.4814 38.8697 40.3371 38.8697 41.4372V47.5489H32.758C31.6579 47.5489 30.8023 48.4045 30.8023 49.5046V52.8049C30.8023 53.9051 31.6579 54.7607 32.758 54.7607H38.8697V60.8724C38.8697 61.9725 39.8476 62.9504 40.8255 62.9504Z" fill="#007AFF"/>
<path d="M22.3692 79.9413H62.7064C63.8065 79.9413 64.6621 79.0857 64.6621 77.9856V74.6852C64.6621 73.5851 63.8065 72.7295 62.7064 72.7295H22.3692C21.2691 72.7295 20.4134 73.5851 20.4134 74.6852V77.9856C20.4134 79.0857 21.2691 79.9413 22.3692 79.9413Z" fill="#007AFF"/>
<path d="M22.3692 96.9314H62.7064C63.8065 96.9314 64.6621 96.0758 64.6621 94.9757V91.6753C64.6621 90.5752 63.8065 89.7196 62.7064 89.7196H22.3692C21.2691 89.7196 20.4134 90.5752 20.4134 91.6753V94.9757C20.4134 96.0758 21.2691 96.9314 22.3692 96.9314Z" fill="#007AFF"/>
<path d="M23.1026 28.6027H61.484C62.9508 28.6027 64.1732 27.3804 64.1732 25.9136V15.0348C64.1732 13.568 62.9508 12.3456 61.484 12.3456H55.1279C54.8834 5.50053 49.2606 0 42.2933 0C35.326 0 29.8254 5.50053 29.4587 12.3456H23.1026C21.6358 12.3456 20.4134 13.568 20.4134 15.0348V25.9136C20.4134 27.3804 21.6358 28.6027 23.1026 28.6027ZM42.2933 7.94521C44.9824 7.94521 47.1827 10.1454 47.1827 12.8346C47.1827 15.5237 44.9824 17.7239 42.2933 17.7239C39.6041 17.7239 37.4039 15.5237 37.4039 12.8346C37.4039 10.1454 39.6041 7.94521 42.2933 7.94521Z" fill="#007AFF"/>
</svg>
