<svg width="93" height="99" viewBox="0 0 93 99" fill="none" xmlns="http://www.w3.org/2000/svg">
<path fill-rule="evenodd" clip-rule="evenodd" d="M54.9377 22.6308C52.4935 25.8953 48.6986 30.7324 42.2281 33.0112C41.6389 33.2187 41.0004 33.4288 40.3234 33.6554C34.386 35.6253 25.5457 38.5614 20.9294 48.158C18.4243 53.3656 18.2849 59.3781 19.9752 64.684C21.6765 70.0216 25.0984 74.2712 29.2535 76.27L46.995 84.8042C48.2441 85.4051 49.4414 85.5865 50.2591 85.467C50.938 85.3728 51.206 85.1335 51.3995 84.7313C51.5913 84.3326 51.6126 83.9703 51.2625 83.3811C50.8437 82.6712 49.9563 81.8455 48.7073 81.2447L45.159 79.5378C44.2179 79.0851 43.4958 78.2759 43.1515 77.2883C42.8072 76.3007 42.8688 75.2154 43.323 74.2714C43.7771 73.3273 44.5865 72.6017 45.573 72.2543C46.5596 71.9068 47.6425 71.966 48.5836 72.4186L53.906 74.9789C55.155 75.5797 56.3523 75.7612 57.1701 75.6417C57.849 75.5475 58.117 75.3082 58.3105 74.906C58.5023 74.5073 58.5236 74.145 58.1735 73.5558C57.7547 72.8459 56.8673 72.0202 55.6183 71.4193L52.07 69.7125C51.1289 69.2598 50.4068 68.4506 50.0625 67.463C49.7181 66.4753 49.7798 65.3901 50.2339 64.4461C50.6881 63.502 51.4974 62.7764 52.484 62.429C53.4705 62.0815 54.5535 62.1406 55.4945 62.5933L60.817 65.1536C62.066 65.7544 63.2633 65.9359 64.0811 65.8164C64.76 65.7222 65.028 65.4829 65.2215 65.0807C65.4132 64.682 65.4346 64.3197 65.0845 63.7305C64.6657 63.0206 63.7783 62.1948 62.5293 61.594L58.981 59.8872C58.0399 59.4345 57.3178 58.6253 56.9734 57.6377C56.6291 56.65 56.6908 55.5648 57.1449 54.6207C57.5991 53.6767 58.4084 52.9511 59.395 52.6037C60.3815 52.2562 61.4645 52.3153 62.4055 52.768L65.9538 54.4749C67.2028 55.0757 68.4002 55.2571 69.2179 55.1377C69.8968 55.0434 70.1648 54.8042 70.3583 54.4019C70.5501 54.0033 70.5714 53.641 70.2213 53.0517C69.8025 52.3418 68.9151 51.5161 67.6661 50.9153L51.6987 43.2344C51.1345 42.9632 50.6433 42.5609 50.2658 42.061C49.8884 41.561 49.6355 40.9778 49.5283 40.3597C49.4211 39.7416 49.4626 39.1065 49.6493 38.5069C49.8361 37.9073 50.1627 37.3607 50.6021 36.9123L50.6038 36.9087L50.6351 36.88L50.7497 36.7598L51.2289 36.2451C51.6418 35.7863 52.2298 35.1179 52.9003 34.2964C54.4872 32.3786 55.8875 30.3133 57.0818 28.1288C58.347 25.7348 58.923 23.7107 58.8216 22.2593C58.7637 21.3986 58.4782 20.5117 57.2258 19.6726C56.7747 20.1745 56.235 20.8967 55.4463 21.955L54.9377 22.6308ZM59.7467 38.3393C61.135 36.5613 62.7367 34.2854 64.0482 31.8042C65.5502 28.9543 66.9358 25.3472 66.6819 21.6966C66.4065 17.6367 64.1408 14.1536 59.7196 12.0268C58.3641 11.3748 56.8781 11.2123 55.4142 11.6214C54.0871 11.9912 53.0652 12.7532 52.3414 13.4132C51.1878 14.4669 50.0463 16.0043 49.0848 17.3038L48.6402 17.9009C46.2619 21.083 43.6826 24.1379 39.6319 25.5645C39.169 25.7275 38.6146 25.908 37.9848 26.1091C32.1782 27.9797 20.0089 31.9049 13.8328 44.7443C10.3449 51.9951 10.2419 60.1116 12.4687 67.1001C14.6844 74.057 19.339 80.2673 25.8289 83.3891L43.5705 91.9234C45.8698 93.0294 48.6489 93.665 51.3485 93.2848C54.187 92.8794 56.9773 91.3024 58.4961 88.145C59.2992 86.4756 59.5331 84.8085 59.3701 83.2398C61.8073 82.615 64.0852 81.0677 65.4071 78.3197C66.2102 76.6503 66.4458 74.9796 66.2794 73.418C68.7165 72.7933 70.9962 71.2424 72.3181 68.4944C73.3609 66.3266 73.4503 64.1605 72.9314 62.2145C74.7721 61.4037 76.4121 59.9834 77.4549 57.8157C78.9754 54.6547 78.4641 51.4939 77.0092 49.0232C75.6228 46.6732 73.39 44.9022 71.0907 43.7961L59.7467 38.3393Z" fill="#007AFF"/>
</svg>
