<svg width="69" height="81" viewBox="0 0 69 81" fill="none" xmlns="http://www.w3.org/2000/svg">
<path fill-rule="evenodd" clip-rule="evenodd" d="M20.9361 5.8023C21.4789 5.10458 22.2765 4.651 23.1537 4.54133L49.6151 1.23868C52.2468 0.910211 54.9012 1.6406 56.9944 3.26917C59.0876 4.89774 60.448 7.29109 60.7765 9.9227L67.3815 62.8428C67.7099 65.4744 66.9795 68.1287 65.3508 70.2218C63.7221 72.3149 61.3286 73.6753 58.6969 74.0038L19.0049 78.9578C16.3731 79.2863 13.7187 78.5559 11.6255 76.9273C9.53232 75.2987 8.17186 72.9054 7.84341 70.2738L2.88968 30.5837C2.78039 29.7065 3.02401 28.8219 3.56697 28.1243L20.9361 5.8023ZM50.4407 7.85369L27.287 10.7435L29.351 27.281C29.4605 28.1582 29.217 29.043 28.6741 29.7407C28.1313 30.4384 27.3334 30.8919 26.4562 31.0014L9.91783 33.0655L14.4587 69.4481C14.5682 70.3253 15.0217 71.1231 15.7194 71.6659C16.4172 72.2088 17.302 72.4523 18.1792 72.3428L57.8713 67.3888C58.7485 67.2793 59.5463 66.8258 60.0892 66.1281C60.6321 65.4304 60.8756 64.5457 60.7661 63.6685L54.1612 10.7484C54.0517 9.87116 53.5982 9.07338 52.9005 8.53052C52.2027 7.98766 51.3179 7.7442 50.4407 7.85369ZM13.7693 25.8668L22.3229 24.7992L21.2554 16.246L13.7693 25.8668Z" fill="#007AFF"/>
</svg>
