<svg width="24" height="16" viewBox="0 0 24 16" fill="none" xmlns="http://www.w3.org/2000/svg">
<path fill-rule="evenodd" clip-rule="evenodd" d="M16.0001 1.99996C15.2044 1.99996 14.4413 2.31603 13.8787 2.87864C13.3161 3.44125 13.0001 4.20431 13.0001 4.99996C13.0001 5.79561 13.3161 6.55867 13.8787 7.12128C14.4413 7.68389 15.2044 7.99996 16.0001 7.99996C16.7957 7.99996 17.5588 7.68389 18.1214 7.12128C18.684 6.55867 19.0001 5.79561 19.0001 4.99996C19.0001 4.20431 18.684 3.44125 18.1214 2.87864C17.5588 2.31603 16.7957 1.99996 16.0001 1.99996ZM11.0001 4.99996C11.0001 4.18492 11.1993 3.38223 11.5805 2.6618C11.9616 1.94137 12.5131 1.32503 13.1869 0.866464C13.8607 0.407895 14.6364 0.120995 15.4464 0.0307473C16.2565 -0.0595005 17.0763 0.0496396 17.8345 0.348665C18.5927 0.64769 19.2663 1.12753 19.7967 1.74641C20.327 2.36529 20.6981 3.10444 20.8774 3.89949C21.0568 4.69455 21.0391 5.5214 20.8259 6.30806C20.6127 7.09472 20.2104 7.81733 19.6541 8.41296C21.3505 8.96483 22.8172 10.0617 23.8261 11.533C23.9668 11.7521 24.0164 12.0176 23.9645 12.2728C23.9125 12.528 23.763 12.7529 23.5478 12.8996C23.3326 13.0463 23.0686 13.1032 22.8121 13.0583C22.5555 13.0133 22.3266 12.8701 22.1741 12.659C21.1981 11.227 19.4181 9.99996 17.0001 9.99996C13.1661 9.99996 11.0001 13.074 11.0001 15C11.0001 15.2652 10.8947 15.5195 10.7072 15.7071C10.5196 15.8946 10.2653 16 10.0001 16C9.73484 16 9.48049 15.8946 9.29295 15.7071C9.10542 15.5195 9.00006 15.2652 9.00006 15C9.00006 14.308 9.15806 13.57 9.46006 12.843C9.38154 12.7921 9.31051 12.7305 9.24906 12.66C8.42806 11.726 7.15406 11 5.50006 11C3.84606 11 2.57206 11.726 1.75106 12.66C1.57329 12.8488 1.32911 12.9612 1.07005 12.9734C0.810993 12.9856 0.557322 12.8967 0.362572 12.7254C0.167821 12.5542 0.0472247 12.3139 0.0262326 12.0554C0.00524061 11.7969 0.085495 11.5404 0.250059 11.34C0.840576 10.6679 1.55664 10.1176 2.35806 9.71996C1.71777 9.09507 1.27828 8.29351 1.09573 7.41765C0.913177 6.54178 0.995852 5.63139 1.33319 4.80274C1.67054 3.97409 2.24723 3.26481 2.98961 2.76548C3.732 2.26616 4.60638 1.99947 5.50106 1.99947C6.39574 1.99947 7.27012 2.26616 8.0125 2.76548C8.75489 3.26481 9.33158 3.97409 9.66892 4.80274C10.0063 5.63139 10.0889 6.54178 9.90639 7.41765C9.72384 8.29351 9.28435 9.09507 8.64406 9.71996C9.33782 10.0643 9.96837 10.5234 10.5091 11.078C11.1882 10.2233 12.0332 9.51481 12.9931 8.99496C12.3736 8.52943 11.871 7.92608 11.5251 7.23268C11.1791 6.53927 10.9994 5.77486 11.0001 4.99996V4.99996ZM3.00006 6.49996C3.00006 5.83692 3.26345 5.20103 3.73229 4.73219C4.20113 4.26335 4.83702 3.99996 5.50006 3.99996C6.1631 3.99996 6.79899 4.26335 7.26783 4.73219C7.73667 5.20103 8.00006 5.83692 8.00006 6.49996C8.00006 7.163 7.73667 7.79888 7.26783 8.26773C6.79899 8.73657 6.1631 8.99996 5.50006 8.99996C4.83702 8.99996 4.20113 8.73657 3.73229 8.26773C3.26345 7.79888 3.00006 7.163 3.00006 6.49996Z" fill="white"/>
</svg>
