<svg width="24" height="24" viewBox="0 0 24 24" fill="none" xmlns="http://www.w3.org/2000/svg">
<path fill-rule="evenodd" clip-rule="evenodd" d="M12 24C5.37258 24 0 18.6274 0 12C0 5.37258 5.37258 0 12 0C18.6274 0 24 5.37258 24 12C24 18.6274 18.6274 24 12 24ZM12.0001 21.8182C17.4225 21.8182 21.8182 17.4224 21.8182 12C21.8182 6.57757 17.4225 2.18182 12.0001 2.18182C6.57763 2.18182 2.18188 6.57757 2.18188 12C2.18188 17.4224 6.57763 21.8182 12.0001 21.8182ZM17.4545 10.9091H13.0909V6.54546H10.909V10.9091H6.54541V13.0909H10.909V17.4545H13.0909V13.0909H17.4545V10.9091Z" fill="#333333"/>
</svg>
