<svg width="24" height="24" viewBox="0 0 24 24" fill="none" xmlns="http://www.w3.org/2000/svg">
<path fill-rule="evenodd" clip-rule="evenodd" d="M15.4394 21.2786C15.994 21.6593 16.6994 22.0658 17.5251 22.3795C19.1268 22.9879 20.3238 23.0242 20.8774 22.9917C22.1117 22.9219 22.2778 22.1385 21.6153 21.1647C20.8593 20.0551 20.131 18.7992 20.2026 17.4094C21.3766 15.6716 22.0028 13.6205 22 11.5219C22 5.71094 17.2989 1 11.5 1C5.70113 1 1 5.71094 1 11.5219C1 17.3328 5.70113 22.0438 11.5 22.0438C12.8917 22.0438 14.2214 21.7721 15.4394 21.2786ZM11.5 2.91307C9.22155 2.91307 7.03642 3.82007 5.42531 5.43454C3.8142 7.049 2.90909 9.23869 2.90909 11.5219C2.90909 13.8051 3.8142 15.9948 5.42531 17.6092C7.03642 19.2237 9.22155 20.1307 11.5 20.1307C12.8077 20.1307 14.0439 19.839 15.1511 19.3177C15.3095 19.2429 15.4854 19.2133 15.6595 19.2321C15.8336 19.2508 15.9992 19.3171 16.1381 19.4238C16.6374 19.8074 17.3456 20.2656 18.2019 20.5908C18.5741 20.7324 18.9139 20.8347 19.2184 20.9074C18.9006 20.3268 18.5789 19.6352 18.4319 18.9848C18.2792 18.3133 18.0501 17.1444 18.4949 16.5207C19.5358 15.0629 20.094 13.3145 20.0909 11.5219C20.0909 9.23869 19.1858 7.049 17.5747 5.43454C15.9636 3.82007 13.7784 2.91307 11.5 2.91307V2.91307Z" fill="white"/>
</svg>
