<svg width="660" height="741" viewBox="0 0 660 741" fill="none" xmlns="http://www.w3.org/2000/svg">
<path d="M476.868 558.92C581.123 499.982 617.859 367.687 558.92 263.432C499.981 159.177 367.687 122.441 263.432 181.38C159.177 240.319 122.441 372.613 181.38 476.868C240.318 581.123 372.613 617.859 476.868 558.92ZM282.196 214.571C368.12 165.995 477.153 196.272 525.729 282.196C574.305 368.12 544.028 477.154 458.104 525.729C372.18 574.305 263.147 544.028 214.571 458.104C165.995 372.18 196.272 263.147 282.196 214.571Z" fill="#EFF7FF"/>
<path d="M476.868 558.92C512.344 538.865 541.45 509.219 560.85 473.381C580.25 437.543 589.159 396.963 586.555 356.294L548.505 358.731C550.651 392.249 543.308 425.693 527.319 455.23C511.33 484.767 487.342 509.2 458.104 525.729L476.868 558.92Z" fill="#C7E3FF"/>
</svg>
