<svg width="99" height="95" viewBox="0 0 99 95" fill="none" xmlns="http://www.w3.org/2000/svg">
<path d="M79.9657 65.0449L74.8672 63.4137L66.7257 74.3984C66.3304 74.9175 65.7852 75.2978 65.1726 75.4817C64.56 75.6656 63.9134 75.6431 63.3307 75.4175C62.748 75.192 62.2609 74.7757 61.9431 74.2318C61.6253 73.6878 61.4942 73.0457 61.5695 72.4028L64.5499 49.1347L60.0902 56.2956C59.7247 56.8766 59.1802 57.3203 58.5472 57.5527C57.9142 57.7852 57.2309 57.7925 56.6112 57.5733L51.8416 56.0474L49.7509 59.3106C49.3194 59.9818 48.6509 60.4612 47.8927 60.6434C47.1344 60.8255 46.3485 60.6955 45.7077 60.2819C45.0668 59.8684 44.6237 59.2051 44.4757 58.438C44.3277 57.671 44.487 56.863 44.9185 56.1918L48.2583 50.9689C48.6299 50.3903 49.1799 49.9514 49.8164 49.7256C50.4528 49.4998 51.1371 49.5008 51.755 49.7283L56.5794 51.2718L66.7768 34.9052C67.1294 34.323 67.6605 33.8724 68.2833 33.6271C68.906 33.3818 69.5835 33.3564 70.2046 33.5551C70.8257 33.7539 71.3537 34.1649 71.7021 34.7208C72.0505 35.2768 72.1985 35.9447 72.122 36.6153L68.807 62.1041L71.6807 58.242C72.0544 57.7419 72.5669 57.3668 73.1471 57.169C73.7272 56.9712 74.3461 56.9606 74.9176 57.1385L81.9075 59.3748C82.6345 59.6073 83.2294 60.1291 83.5614 60.8252C83.8934 61.5213 83.9352 62.3349 83.6777 63.0868C83.4202 63.8387 82.8845 64.4674 82.1884 64.8346C81.4922 65.2018 80.6927 65.2774 79.9657 65.0449ZM41.7523 66.5032C41.2386 66.1708 40.6276 66.0189 40.0084 66.0698C39.3891 66.1206 38.794 66.3716 38.3098 66.786L45.2165 9.228C45.474 8.4761 45.4321 7.6626 45.1001 6.96646C44.7681 6.27033 44.1732 5.74858 43.4462 5.516C42.7192 5.28342 41.9197 5.35906 41.2236 5.72627C40.5274 6.09349 39.9917 6.7222 39.7342 7.47411L21.438 40.0293L16.1202 38.328C15.3932 38.0954 14.5937 38.1711 13.8975 38.5383C13.2014 38.9055 12.6657 39.5342 12.4082 40.2861C12.1507 41.038 12.1925 41.8515 12.5245 42.5477C12.8565 43.2438 13.4514 43.7655 14.1784 43.9981L21.7714 46.4273C22.4124 46.6458 23.1176 46.6233 23.7628 46.3636C24.4081 46.104 24.952 45.6239 25.2989 45.0078L37.8253 22.9063L30.9935 78.3806C30.736 79.1325 30.7779 79.946 31.1099 80.6422C31.4419 81.3383 32.0368 81.8601 32.7638 82.0926C33.4908 82.3252 34.2903 82.2496 34.9864 81.8824C35.6826 81.5152 36.2183 80.8864 36.4758 80.1345L42.6253 70.5259C43.0304 69.8509 43.1659 69.0513 43.0026 68.299C42.8393 67.5466 42.3903 66.9018 41.7523 66.5032Z" fill="#007AFF"/>
</svg>
