<svg width="74" height="74" viewBox="0 0 74 74" fill="none" xmlns="http://www.w3.org/2000/svg">
<path fill-rule="evenodd" clip-rule="evenodd" d="M9.0812 24.8388L20.9679 20.6457C18.5137 23.9493 16.4059 27.4967 14.6779 31.2318L9.0812 24.8388ZM0.824538 25.5287L11.8345 38.1081L10.2412 42.0946C9.99871 42.6996 9.93894 43.3625 10.0693 44.0011C10.1996 44.6397 10.5144 45.2261 10.9745 45.6878L12.0245 46.7344C6.34454 53.1341 3.2112 59.8304 0.171204 68.9433C-0.024661 69.5306 -0.0530857 70.1608 0.0891164 70.7633C0.231319 71.3659 0.538528 71.9169 0.976311 72.3547C1.41409 72.7924 1.96515 73.0996 2.56772 73.2418C3.17029 73.384 3.80055 73.3556 4.38787 73.1597C13.5012 70.1199 20.1979 66.9867 26.5979 61.307L27.6445 62.3536C28.1058 62.8143 28.6921 63.1297 29.3308 63.2606C29.9694 63.3915 30.6325 63.3323 31.2379 63.0902L35.2245 61.497L47.8045 72.5064C48.2143 72.8653 48.7058 73.1183 49.2361 73.2432C49.7663 73.3681 50.319 73.3613 50.846 73.2231C51.3729 73.085 51.8579 72.8198 52.2586 72.4508C52.6593 72.0818 52.9635 71.6203 53.1445 71.1065L63.0979 42.9079C69.7089 35.0854 73.3355 25.1743 73.3345 14.9326V3.33317C73.3345 2.44916 72.9833 1.60135 72.3582 0.976263C71.7331 0.351172 70.8852 4.25538e-07 70.0012 4.25538e-07H58.4012C48.1605 -0.00143404 38.2502 3.62382 30.4279 10.2328L2.22787 20.189C1.71468 20.3702 1.25366 20.6743 0.885095 21.0748C0.516529 21.4752 0.251624 21.9598 0.113521 22.4862C-0.0245821 23.0126 -0.0316826 23.5648 0.0928405 24.0946C0.217364 24.6244 0.469722 25.1156 0.827871 25.5254L0.824538 25.5287ZM8.9512 64.3802C11.0445 59.3271 13.3912 55.3073 16.7479 51.4575L21.8745 56.5839C18.0245 59.9404 14.0045 62.2869 8.9512 64.3802ZM30.8045 56.0872L29.0245 54.3073L19.0245 44.3078L17.2445 42.5279L19.6112 36.6115C21.7831 31.184 24.8327 26.1504 28.6379 21.7123L30.5579 19.469C34.0006 15.453 38.2716 12.2293 43.0778 10.0194C47.8839 7.80952 53.1113 6.66565 58.4012 6.66634H66.6679V14.9326C66.6685 20.2222 65.5246 25.4494 63.3146 30.2553C61.1046 35.0612 57.8808 39.332 53.8645 42.7746L51.6212 44.6945C47.1828 48.4994 42.149 51.5488 36.7212 53.7207L30.8045 56.0872ZM48.4945 64.2502L42.1012 58.6571C45.8365 56.9293 49.3841 54.8216 52.6879 52.3674L48.4945 64.2502ZM46.6679 23.3322C46.6679 22.4482 47.0191 21.6004 47.6442 20.9753C48.2693 20.3502 49.1171 19.999 50.0012 19.999C50.8853 19.999 51.7331 20.3502 52.3582 20.9753C52.9833 21.6004 53.3345 22.4482 53.3345 23.3322C53.3345 24.2162 52.9833 25.064 52.3582 25.6891C51.7331 26.3142 50.8853 26.6654 50.0012 26.6654C49.1171 26.6654 48.2693 26.3142 47.6442 25.6891C47.0191 25.064 46.6679 24.2162 46.6679 23.3322ZM50.0012 13.3327C47.349 13.3327 44.8055 14.3862 42.9301 16.2615C41.0548 18.1367 40.0012 20.6802 40.0012 23.3322C40.0012 25.9842 41.0548 28.5276 42.9301 30.4029C44.8055 32.2782 47.349 33.3317 50.0012 33.3317C52.6534 33.3317 55.1969 32.2782 57.0723 30.4029C58.9476 28.5276 60.0012 25.9842 60.0012 23.3322C60.0012 20.6802 58.9476 18.1367 57.0723 16.2615C55.1969 14.3862 52.6534 13.3327 50.0012 13.3327Z" fill="#007AFF"/>
</svg>
